<svg id="Layer_1" data-name="Layer 1" xmlns="http://www.w3.org/2000/svg" viewBox="0 0 18.13 16.25"><defs><style>.cls-1{fill:blue;}.cls-2,.cls-3,.cls-4,.cls-6,.cls-7{fill:none;stroke-miterlimit:10;}.cls-2{stroke:aqua;}.cls-2,.cls-3,.cls-6,.cls-7{stroke-width:0.25px;}.cls-3{stroke:#754c24;}.cls-4{stroke:#000;stroke-width:0.1px;}.cls-5{fill:#29abe2;}.cls-6{stroke:#603813;}.cls-7{stroke:#fff;stroke-linecap:round;}.cls-8{fill:#eb52b5;}</style></defs><rect class="cls-1" x="6.5" y="3.82" width="8" height="2.62"/><path class="cls-2" d="M12,11" transform="translate(2 0.13)"/><path class="cls-2" d="M3,11" transform="translate(2 0.13)"/><path class="cls-3" d="M5,13" transform="translate(2 0.13)"/><path class="cls-2" d="M20,11" transform="translate(2 0.13)"/><path class="cls-2" d="M18,7" transform="translate(2 0.13)"/><line class="cls-4" y1="4.13" y2="4.13"/><path class="cls-5" d="M0,9a7.67,7.67,0,0,0,8,7,7.67,7.67,0,0,0,8-7c0-.85-2.74,1-7,1C7,10,6,8,3,9,.43,9.86,0,8,0,9Z" transform="translate(2 0.13)"/><path class="cls-6" d="M8.14,16H7.86A7.86,7.86,0,0,1,0,8.14V7.86A7.86,7.86,0,0,1,7.86,0h.28A7.86,7.86,0,0,1,16,7.86v.28a7.93,7.93,0,0,1-.6,3,8.26,8.26,0,0,1-1.7,2.53A8.49,8.49,0,0,1,8.14,16Z" transform="translate(2 0.13)"/><path class="cls-3" d="M5,11" transform="translate(2 0.13)"/><path class="cls-3" d="M22,11" transform="translate(2 0.13)"/><path class="cls-7" d="M3,11.53A3.45,3.45,0,0,0,5.5,13,3.26,3.26,0,0,0,8,11.53" transform="translate(2 0.13)"/><path class="cls-7" d="M3.73,10.7A2.39,2.39,0,0,0,5.5,11.93c.25,0,1-.07,1.77-1.23" transform="translate(2 0.13)"/><path class="cls-7" d="M4.35,10a1.53,1.53,0,0,0,1.14.73A1.36,1.36,0,0,0,6.63,10" transform="translate(2 0.13)"/><rect class="cls-8" x="6.5" y="6.98" width="4" height="1.5"/></svg>