<svg width="832" height="250" viewBox="0 0 832 250" fill="none" xmlns="http://www.w3.org/2000/svg">
<path d="M127.027 38.3906C127.158 38.9766 127.223 39.4974 127.223 39.9531C127.223 41.8411 126.083 43.1107 123.805 43.7617C123.674 43.8268 121.363 44.1849 116.871 44.8359C106.78 46.2682 94.3776 47.6029 79.6641 48.8398C75.8229 57.043 70.2891 73.8398 63.0625 99.2305C75.3672 98.1237 87.8346 97.4401 100.465 97.1797C104.241 97.1146 106.747 98.319 107.984 100.793C108.245 101.314 108.733 103.462 109.449 107.238C109.579 107.759 109.645 108.215 109.645 108.605C109.645 110.819 107.105 112.349 102.027 113.195C98.3815 113.846 96.2005 114.139 95.4844 114.074C94.2474 114.009 93.3034 113.391 92.6523 112.219C91.7409 110.461 90.0156 109.582 87.4766 109.582C73.2839 109.582 64.0065 109.842 59.6445 110.363C57.3008 116.353 53.1667 132.499 47.2422 158.801C46.1354 163.684 44.5404 166.125 42.457 166.125C41.0898 166.125 38.2904 165.409 34.0586 163.977C31.5195 163.13 30.5755 160.266 31.2266 155.383C32.138 149.133 33.4076 143.078 35.0352 137.219C35.8164 134.484 38.4857 133.54 43.043 134.387C44.5404 131.001 46.3307 125.598 48.4141 118.176C45.6797 111.145 44.3125 107.531 44.3125 107.336C44.3125 106.945 44.3451 106.555 44.4102 106.164C44.8008 104.016 48.0234 102.29 54.0781 100.988C54.4036 99.8815 59.7422 82.8893 70.0938 50.0117C59.8073 50.793 49.7487 52.3555 39.918 54.6992C28.7852 57.3034 21.4284 60.2005 17.8477 63.3906C14.0716 66.776 12.1836 70.194 12.1836 73.6445C12.1836 77.3555 14.332 83.2148 18.6289 91.2227C19.0846 92.0039 19.3125 92.7852 19.3125 93.5664C19.3125 95.194 18.5638 96.0078 17.0664 96.0078C16.0247 96.0078 15.0807 95.3893 14.2344 94.1523C9.09115 86.7956 5.73828 81.0664 4.17578 76.9648C3.06901 74.1003 2.28776 69.9661 1.83203 64.5625C1.18099 56.5547 7.65885 50.6953 21.2656 46.9844C39.1042 42.1016 57.2357 38.8464 75.6602 37.2188C77.7435 32.987 79.306 30.8711 80.3477 30.8711C81.8451 30.8711 84.4167 32.4987 88.0625 35.7539C89.7552 35.7539 95.0286 35.1029 103.883 33.8008C105.38 33.5404 106.943 32.401 108.57 30.3828C110.003 28.4948 113.421 27.4206 118.824 27.1602C121.819 27.0299 123.87 28.1367 124.977 30.4805C125.107 30.806 125.79 33.4427 127.027 38.3906ZM163.551 135.168C147.73 155.415 136.598 165.539 130.152 165.539C127.092 165.539 123.219 163.423 118.531 159.191C113.648 156.913 111.207 153.853 111.207 150.012C111.207 149.296 111.272 148.547 111.402 147.766C112.574 138.846 114.951 128.983 118.531 118.176C116.122 116.939 114.918 115.767 114.918 114.66C114.918 113.749 115.602 113.293 116.969 113.293C118.01 113.293 119.085 113.586 120.191 114.172C125.986 101.151 131.194 91.9062 135.816 86.4375C138.811 82.7917 141.513 80.9688 143.922 80.9688C145.029 80.9688 147.763 81.9128 152.125 83.8008C151.799 81.8477 152.353 80.7083 153.785 80.3828C153.85 80.3828 155.38 80.3828 158.375 80.3828C161.174 80.3828 162.574 80.8711 162.574 81.8477C162.574 82.043 162.477 82.5964 162.281 83.5078C162.086 84.4193 161.988 85.2656 161.988 86.0469C161.988 88.3906 162.021 91.2878 162.086 94.7383C162.151 98.1888 162.184 100.5 162.184 101.672C162.184 109.745 159.97 115.376 155.543 118.566C151.507 121.496 146.949 122.961 141.871 122.961C139.202 122.961 134.775 122.245 128.59 120.812C127.483 122.831 126.246 126.77 124.879 132.629C123.056 140.051 122.21 146.626 122.34 152.355C122.405 155.741 123.479 157.434 125.562 157.434C126.344 157.434 127.353 157.238 128.59 156.848C136.142 154.178 146.656 146.04 160.133 132.434C160.979 131.587 161.826 131.164 162.672 131.164C163.909 131.164 164.527 131.75 164.527 132.922C164.527 133.638 164.202 134.387 163.551 135.168ZM152.125 92.0039C152.125 89.4648 151.572 88.1953 150.465 88.1953C149.749 88.1953 148.707 88.7161 147.34 89.7578C140.96 94.901 135.361 103.918 130.543 116.809C131.845 117.004 134.124 117.199 137.379 117.395C142.652 117.59 146.591 116.385 149.195 113.781C151.148 111.828 152.223 108.605 152.418 104.113C152.223 107.434 152.125 103.397 152.125 92.0039ZM249.195 11.4375C250.042 12.0885 250.465 12.7721 250.465 13.4883C250.465 14.7253 249.716 15.3438 248.219 15.3438C247.568 15.3438 246.884 15.1484 246.168 14.7578C243.173 13.2604 240.927 12.5117 239.43 12.5117C235.328 12.5117 230.836 16.4831 225.953 24.4258C208.245 53.2669 195.647 90.5391 188.16 136.242C187.965 137.479 187.639 139.139 187.184 141.223C188.681 139.66 190.895 137.121 193.824 133.605C195.517 131.587 196.754 130.578 197.535 130.578C199.228 130.578 199.358 131.587 197.926 133.605C191.676 142.525 187.542 151.867 185.523 161.633C184.807 164.042 183.896 165.246 182.789 165.246C182.268 165.246 181.585 164.953 180.738 164.367C177.418 162.154 175.53 160.852 175.074 160.461C173.772 159.159 173.121 157.466 173.121 155.383C173.121 154.341 173.284 153.072 173.609 151.574C181.161 110.103 190.895 74.7839 202.809 45.6172C211.793 23.612 219.833 9.35417 226.93 2.84375C228.883 1.02083 230.836 0.141927 232.789 0.207031C234.547 0.272135 236.826 1.37891 239.625 3.52734C242.815 6.13151 246.005 8.76823 249.195 11.4375ZM250.66 53.8203C251.702 54.6016 252.223 55.4805 252.223 56.457C252.223 58.3451 249.423 61.2747 243.824 65.2461C240.113 67.7852 236.533 68.6966 233.082 67.9805C231.129 67.5898 229.436 66.8737 228.004 65.832C227.548 65.4414 227.19 65.0508 226.93 64.6602C226.734 64.2044 226.702 63.8464 226.832 63.5859C227.027 63.3255 227.418 63.2604 228.004 63.3906C233.993 58.1823 237.932 54.4388 239.82 52.1602C241.318 50.4674 242.392 49.6211 243.043 49.6211C244.215 49.6211 246.754 51.0208 250.66 53.8203ZM236.891 96.5938C235.328 105.383 231.259 119.999 224.684 140.441C226.572 138.749 229.176 135.656 232.496 131.164C232.952 130.578 233.408 130.285 233.863 130.285C234.905 130.285 235.035 131.197 234.254 133.02C233.928 133.736 231.194 138.195 226.051 146.398C222.145 152.648 219.28 158.182 217.457 163C216.871 164.497 215.797 165.246 214.234 165.246C212.672 165.246 210.556 164.497 207.887 163C206.194 162.089 205.348 161.405 205.348 160.949C205.348 160.559 205.706 159.712 206.422 158.41C209.938 152.225 213.844 141.874 218.141 127.355C222.242 113.293 224.553 102.844 225.074 96.0078C225.27 93.0781 224.977 91.6133 224.195 91.6133C223.609 91.6133 222.568 92.3294 221.07 93.7617L215.016 99.4258C212.867 101.379 211.793 101.477 211.793 99.7188C211.793 99.1979 212.086 98.5469 212.672 97.7656C215.732 93.4688 218.987 89.3997 222.438 85.5586C223.479 84.4518 224.488 83.8984 225.465 83.8984C226.507 83.8984 228.036 84.6146 230.055 86.0469C233.049 86.8281 234.71 87.3164 235.035 87.5117C236.533 88.4232 237.281 90.1159 237.281 92.5898C237.281 93.7617 237.151 95.0964 236.891 96.5938ZM311.891 93.5664C309.417 96.6263 303.688 102.355 294.703 110.754C286.044 118.827 281.129 123.645 279.957 125.207C281.585 131.978 284.124 140.702 287.574 151.379C288.811 154.178 290.211 155.578 291.773 155.578C292.75 155.578 294.475 154.667 296.949 152.844C297.6 152.323 298.284 152.062 299 152.062C300.237 152.062 300.855 152.648 300.855 153.82C300.855 154.406 300.628 154.992 300.172 155.578C294.443 162.089 289.951 165.572 286.695 166.027C283.049 166.483 280.315 164.335 278.492 159.582C275.758 152.355 273.121 143.632 270.582 133.41C246.038 159.257 233.408 178.462 232.691 191.027C232.561 194.608 233.115 197.408 234.352 199.426C235.849 201.77 235.719 202.941 233.961 202.941C233.245 202.941 232.496 202.486 231.715 201.574C228.85 198.254 227.027 195.78 226.246 194.152C225.009 191.743 224.423 188.684 224.488 184.973C224.618 179.634 229.208 171.171 238.258 159.582C246.526 148.905 256.617 137.967 268.531 126.77C264.495 110.689 261.109 100.76 258.375 96.9844C257.138 95.3568 256.031 94.543 255.055 94.543C254.078 94.543 252.646 95.2266 250.758 96.5938C249.977 97.1146 249.26 97.375 248.609 97.375C247.633 97.375 247.145 96.9844 247.145 96.2031C247.145 95.3568 247.73 94.4779 248.902 93.5664C254.827 89.2695 259.254 86.4049 262.184 84.9727C264.332 83.931 265.699 83.4102 266.285 83.4102C267.652 83.4102 268.727 84.5495 269.508 86.8281C270.615 89.888 273.544 100.012 278.297 117.199C288.128 107.108 294.736 99.9792 298.121 95.8125C303.85 88.7812 306.845 83.1823 307.105 79.0156C307.236 76.8021 306.975 74.9141 306.324 73.3516C305.608 71.724 305.868 70.9102 307.105 70.9102C307.561 70.9102 308.049 71.2031 308.57 71.7891C313.193 77.5182 315.504 81.9779 315.504 85.168C315.504 87.9023 314.299 90.7018 311.891 93.5664ZM470.094 51.3789C467.75 71.6914 461.012 93.7943 449.879 117.688C435.361 149.068 419.312 165.116 401.734 165.832C398.349 165.962 395.126 165.702 392.066 165.051C388.551 164.4 387.021 163.521 387.477 162.414C376.799 159.81 369.41 156.783 365.309 153.332C359.645 148.579 356.975 141.255 357.301 131.359C357.952 112.479 363.583 92.2643 374.195 70.7148C382.724 53.3971 390.96 41.0924 398.902 33.8008C402.223 30.7409 405.283 29.2109 408.082 29.2109C410.882 29.2109 413.714 29.9922 416.578 31.5547C417.75 32.2057 421.461 34.6146 427.711 38.7812C432.789 33.2474 437.118 29.2435 440.699 26.7695C442.848 25.3372 445.061 24.6211 447.34 24.6211C451.181 24.6211 454.632 26.5417 457.691 30.3828C463.095 30.7083 466.578 31.4245 468.141 32.5312C470.029 33.7682 470.973 36.3724 470.973 40.3438C470.973 42.6224 470.68 46.3008 470.094 51.3789ZM457.105 43.1758C457.431 38.293 456.292 35.8516 453.688 35.8516C451.604 35.8516 448.479 37.3164 444.312 40.2461C434.938 46.6914 423.609 56.1966 410.328 68.7617C408.831 70.194 407.496 70.9427 406.324 71.0078C405.217 71.138 404.664 70.6497 404.664 69.543C404.664 68.5013 405.152 67.2643 406.129 65.832C411.793 56.9779 417.587 49.2956 423.512 42.7852C420.126 40.2461 417.099 38.9766 414.43 38.9766C412.802 38.9766 411.37 39.4648 410.133 40.4414C402.906 45.7148 394.736 57.401 385.621 75.5C374.749 96.9193 369.703 115.702 370.484 131.848C370.81 138.423 372.079 143.404 374.293 146.789C376.246 149.719 379.729 152.453 384.742 154.992C388.714 157.01 392.62 157.824 396.461 157.434C409.742 156.001 422.893 142.427 435.914 116.711C448.284 92.2318 455.348 67.7201 457.105 43.1758ZM537.477 95.4219C528.427 137.154 519.931 168.371 511.988 189.074C496.624 229.309 478.98 249.426 459.059 249.426C447.405 249.426 434.872 243.078 421.461 230.383C420.289 229.276 419.703 228.104 419.703 226.867C419.703 224.914 420.615 223.938 422.438 223.938C423.349 223.938 424.228 224.296 425.074 225.012C435.686 234.061 445.159 238.586 453.492 238.586C468.792 238.586 482.691 225.826 495.191 200.305C505.022 180.318 513.583 153.495 520.875 119.836C521.331 117.427 522.079 113.749 523.121 108.801C516.285 119.934 508.635 130.904 500.172 141.711C492.034 152.128 485.621 159.289 480.934 163.195C478.329 165.344 476.246 166.418 474.684 166.418C473.447 166.418 472.177 165.734 470.875 164.367C469.508 162.609 468.108 160.884 466.676 159.191C466.025 158.41 465.699 157.694 465.699 157.043C465.699 156.978 465.699 156.913 465.699 156.848C465.829 156.066 466.415 155.513 467.457 155.188C470.582 150.956 473.512 141.809 476.246 127.746C478.329 116.678 479.762 106.164 480.543 96.2031C480.673 93.8594 480.38 92.6875 479.664 92.6875C479.469 92.6875 477.939 93.8594 475.074 96.2031C470.517 100.044 468.043 101.965 467.652 101.965C466.741 101.965 466.285 101.509 466.285 100.598C466.285 100.142 466.48 99.6862 466.871 99.2305C467.978 97.8633 470.452 94.4453 474.293 88.9766C477.743 84.0938 480.055 81.6523 481.227 81.6523C482.138 81.6523 483.375 82.043 484.938 82.8242C488.258 82.3034 490.113 82.043 490.504 82.043C492.717 82.043 493.824 83.7357 493.824 87.1211C493.824 92.7852 492.197 103.885 488.941 120.422C485.686 136.893 483.017 147.538 480.934 152.355C487.444 147.212 495.908 137.121 506.324 122.082C516.48 107.434 522.796 96.3984 525.27 88.9766C525.4 84.6146 526.344 82.4336 528.102 82.4336C529.469 82.4336 532.008 83.8333 535.719 86.6328C537.802 88.1953 538.388 91.125 537.477 95.4219ZM598.121 135.168C582.301 155.415 571.168 165.539 564.723 165.539C561.663 165.539 557.789 163.423 553.102 159.191C548.219 156.913 545.777 153.853 545.777 150.012C545.777 149.296 545.842 148.547 545.973 147.766C547.145 138.846 549.521 128.983 553.102 118.176C550.693 116.939 549.488 115.767 549.488 114.66C549.488 113.749 550.172 113.293 551.539 113.293C552.581 113.293 553.655 113.586 554.762 114.172C560.556 101.151 565.764 91.9062 570.387 86.4375C573.382 82.7917 576.083 80.9688 578.492 80.9688C579.599 80.9688 582.333 81.9128 586.695 83.8008C586.37 81.8477 586.923 80.7083 588.355 80.3828C588.421 80.3828 589.951 80.3828 592.945 80.3828C595.745 80.3828 597.145 80.8711 597.145 81.8477C597.145 82.043 597.047 82.5964 596.852 83.5078C596.656 84.4193 596.559 85.2656 596.559 86.0469C596.559 88.3906 596.591 91.2878 596.656 94.7383C596.721 98.1888 596.754 100.5 596.754 101.672C596.754 109.745 594.54 115.376 590.113 118.566C586.077 121.496 581.52 122.961 576.441 122.961C573.772 122.961 569.345 122.245 563.16 120.812C562.053 122.831 560.816 126.77 559.449 132.629C557.626 140.051 556.78 146.626 556.91 152.355C556.975 155.741 558.049 157.434 560.133 157.434C560.914 157.434 561.923 157.238 563.16 156.848C570.712 154.178 581.227 146.04 594.703 132.434C595.549 131.587 596.396 131.164 597.242 131.164C598.479 131.164 599.098 131.75 599.098 132.922C599.098 133.638 598.772 134.387 598.121 135.168ZM586.695 92.0039C586.695 89.4648 586.142 88.1953 585.035 88.1953C584.319 88.1953 583.277 88.7161 581.91 89.7578C575.53 94.901 569.931 103.918 565.113 116.809C566.415 117.004 568.694 117.199 571.949 117.395C577.223 117.59 581.161 116.385 583.766 113.781C585.719 111.828 586.793 108.605 586.988 104.113C586.793 107.434 586.695 103.397 586.695 92.0039ZM683.766 11.4375C684.612 12.0885 685.035 12.7721 685.035 13.4883C685.035 14.7253 684.286 15.3438 682.789 15.3438C682.138 15.3438 681.454 15.1484 680.738 14.7578C677.743 13.2604 675.497 12.5117 674 12.5117C669.898 12.5117 665.406 16.4831 660.523 24.4258C642.815 53.2669 630.217 90.5391 622.73 136.242C622.535 137.479 622.21 139.139 621.754 141.223C623.251 139.66 625.465 137.121 628.395 133.605C630.087 131.587 631.324 130.578 632.105 130.578C633.798 130.578 633.928 131.587 632.496 133.605C626.246 142.525 622.112 151.867 620.094 161.633C619.378 164.042 618.466 165.246 617.359 165.246C616.839 165.246 616.155 164.953 615.309 164.367C611.988 162.154 610.1 160.852 609.645 160.461C608.342 159.159 607.691 157.466 607.691 155.383C607.691 154.341 607.854 153.072 608.18 151.574C615.732 110.103 625.465 74.7839 637.379 45.6172C646.363 23.612 654.404 9.35417 661.5 2.84375C663.453 1.02083 665.406 0.141927 667.359 0.207031C669.117 0.272135 671.396 1.37891 674.195 3.52734C677.385 6.13151 680.576 8.76823 683.766 11.4375ZM694.801 135.168C678.98 155.415 667.848 165.539 661.402 165.539C658.342 165.539 654.469 163.423 649.781 159.191C644.898 156.913 642.457 153.853 642.457 150.012C642.457 149.296 642.522 148.547 642.652 147.766C643.824 138.846 646.201 128.983 649.781 118.176C647.372 116.939 646.168 115.767 646.168 114.66C646.168 113.749 646.852 113.293 648.219 113.293C649.26 113.293 650.335 113.586 651.441 114.172C657.236 101.151 662.444 91.9062 667.066 86.4375C670.061 82.7917 672.763 80.9688 675.172 80.9688C676.279 80.9688 679.013 81.9128 683.375 83.8008C683.049 81.8477 683.603 80.7083 685.035 80.3828C685.1 80.3828 686.63 80.3828 689.625 80.3828C692.424 80.3828 693.824 80.8711 693.824 81.8477C693.824 82.043 693.727 82.5964 693.531 83.5078C693.336 84.4193 693.238 85.2656 693.238 86.0469C693.238 88.3906 693.271 91.2878 693.336 94.7383C693.401 98.1888 693.434 100.5 693.434 101.672C693.434 109.745 691.22 115.376 686.793 118.566C682.757 121.496 678.199 122.961 673.121 122.961C670.452 122.961 666.025 122.245 659.84 120.812C658.733 122.831 657.496 126.77 656.129 132.629C654.306 140.051 653.46 146.626 653.59 152.355C653.655 155.741 654.729 157.434 656.812 157.434C657.594 157.434 658.603 157.238 659.84 156.848C667.392 154.178 677.906 146.04 691.383 132.434C692.229 131.587 693.076 131.164 693.922 131.164C695.159 131.164 695.777 131.75 695.777 132.922C695.777 133.638 695.452 134.387 694.801 135.168ZM683.375 92.0039C683.375 89.4648 682.822 88.1953 681.715 88.1953C680.999 88.1953 679.957 88.7161 678.59 89.7578C672.21 94.901 666.611 103.918 661.793 116.809C663.095 117.004 665.374 117.199 668.629 117.395C673.902 117.59 677.841 116.385 680.445 113.781C682.398 111.828 683.473 108.605 683.668 104.113C683.473 107.434 683.375 103.397 683.375 92.0039ZM789.43 173.352C783.375 182.727 778.492 187.414 774.781 187.414C770.224 187.414 763.681 181.294 755.152 169.055C746.689 156.88 739.43 143.208 733.375 128.039C725.628 137.609 720.257 148.807 717.262 161.633C716.546 164.497 715.699 165.93 714.723 165.93C714.332 165.93 713.551 165.702 712.379 165.246C706.975 162.902 704.273 160.526 704.273 158.117C704.273 157.792 704.664 155.611 705.445 151.574C712.932 110.233 722.698 74.9141 734.742 45.6172C743.727 23.7422 751.832 9.48438 759.059 2.84375C760.882 1.08594 762.672 0.207031 764.43 0.207031C766.253 0.207031 768.596 1.28125 771.461 3.42969C774.716 6.09896 777.971 8.76823 781.227 11.4375C782.138 12.0885 782.594 12.8047 782.594 13.5859C782.594 14.7578 781.845 15.3438 780.348 15.3438C779.632 15.3438 778.915 15.1484 778.199 14.7578C775.204 13.2604 772.958 12.5117 771.461 12.5117C767.359 12.5117 762.867 16.4831 757.984 24.4258C740.471 53.0065 727.874 90.2786 720.191 136.242C721.754 133.052 725.302 126.965 730.836 117.98C730.12 115.702 729.762 114.367 729.762 113.977C729.762 112.414 731.975 111.21 736.402 110.363C745.257 97.4727 752.516 88.8138 758.18 84.3867C760.198 82.8242 761.76 82.043 762.867 82.043C763.974 82.043 766.025 83.638 769.02 86.8281C773.707 88.7161 776.051 91.0599 776.051 93.8594C776.051 94.7708 775.921 95.9427 775.66 97.375C774.423 102.779 772.665 107.531 770.387 111.633C769.215 113.781 767.978 114.855 766.676 114.855C765.764 114.855 764.332 114.497 762.379 113.781C758.668 112.479 756.812 111.145 756.812 109.777C756.812 108.931 757.398 108.28 758.57 107.824C761.305 105.48 762.997 100.858 763.648 93.957C763.779 92.3294 763.355 91.5156 762.379 91.5156C761.793 91.5156 761.012 91.8737 760.035 92.5898C752.874 97.7982 746.721 105.35 741.578 115.246C751.474 145.78 762.737 164.888 775.367 172.57C776.93 173.482 778.525 173.938 780.152 173.938C782.496 173.938 784.286 173.254 785.523 171.887C786.76 170.52 787.867 169.836 788.844 169.836C789.755 169.836 790.211 170.324 790.211 171.301C790.211 171.887 789.951 172.57 789.43 173.352ZM830.934 135.168C815.113 155.415 803.98 165.539 797.535 165.539C794.475 165.539 790.602 163.423 785.914 159.191C781.031 156.913 778.59 153.853 778.59 150.012C778.59 149.296 778.655 148.547 778.785 147.766C779.957 138.846 782.333 128.983 785.914 118.176C783.505 116.939 782.301 115.767 782.301 114.66C782.301 113.749 782.984 113.293 784.352 113.293C785.393 113.293 786.467 113.586 787.574 114.172C793.368 101.151 798.577 91.9062 803.199 86.4375C806.194 82.7917 808.896 80.9688 811.305 80.9688C812.411 80.9688 815.146 81.9128 819.508 83.8008C819.182 81.8477 819.736 80.7083 821.168 80.3828C821.233 80.3828 822.763 80.3828 825.758 80.3828C828.557 80.3828 829.957 80.8711 829.957 81.8477C829.957 82.043 829.859 82.5964 829.664 83.5078C829.469 84.4193 829.371 85.2656 829.371 86.0469C829.371 88.3906 829.404 91.2878 829.469 94.7383C829.534 98.1888 829.566 100.5 829.566 101.672C829.566 109.745 827.353 115.376 822.926 118.566C818.889 121.496 814.332 122.961 809.254 122.961C806.585 122.961 802.158 122.245 795.973 120.812C794.866 122.831 793.629 126.77 792.262 132.629C790.439 140.051 789.592 146.626 789.723 152.355C789.788 155.741 790.862 157.434 792.945 157.434C793.727 157.434 794.736 157.238 795.973 156.848C803.525 154.178 814.039 146.04 827.516 132.434C828.362 131.587 829.208 131.164 830.055 131.164C831.292 131.164 831.91 131.75 831.91 132.922C831.91 133.638 831.585 134.387 830.934 135.168ZM819.508 92.0039C819.508 89.4648 818.954 88.1953 817.848 88.1953C817.132 88.1953 816.09 88.7161 814.723 89.7578C808.342 94.901 802.743 103.918 797.926 116.809C799.228 117.004 801.507 117.199 804.762 117.395C810.035 117.59 813.974 116.385 816.578 113.781C818.531 111.828 819.605 108.605 819.801 104.113C819.605 107.434 819.508 103.397 819.508 92.0039Z" fill="#FC5185"/>
</svg>
