<svg width="859" height="214" viewBox="0 0 859 214" fill="none" xmlns="http://www.w3.org/2000/svg">
<path d="M58.0938 33.582C58.0938 34.1029 57.9961 34.6237 57.8008 35.1445C57.6706 35.6003 57.5078 36.0234 57.3125 36.4141C56.6615 38.1068 55.9779 39.7669 55.2617 41.3945C54.5456 43.0221 53.8945 44.6823 53.3086 46.375C50.9648 53.7318 49.1419 61.9674 47.8398 71.082C46.6029 80.1315 45.8216 89.6042 45.4961 99.5C46.9935 99.6302 48.4583 99.7604 49.8906 99.8906C51.3229 99.9557 52.7878 99.9883 54.2852 99.9883C57.2799 99.9883 60.5026 99.8581 63.9531 99.5977C67.4036 99.3372 70.7891 99.0117 74.1094 98.6211C77.4297 98.1654 80.5221 97.6445 83.3867 97.0586C86.3164 96.4727 88.7578 95.8542 90.7109 95.2031L91.8828 96.375C86.0234 100.021 79.1224 102.82 71.1797 104.773C63.237 106.727 54.6107 108.061 45.3008 108.777C45.1706 119.52 45.4635 130.099 46.1797 140.516C46.8958 150.997 47.9375 160.828 49.3047 170.008L47.6445 170.789C45.7565 166.492 44.1289 161.87 42.7617 156.922C41.3945 151.974 40.1901 146.863 39.1484 141.59C38.1719 136.316 37.3581 130.945 36.707 125.477C36.1211 120.008 35.6328 114.604 35.2422 109.266C33.9401 109.331 32.6055 109.363 31.2383 109.363C29.9362 109.363 28.6016 109.363 27.2344 109.363C26.0625 109.363 24.6953 109.331 23.1328 109.266C21.6354 109.135 20.2031 108.875 18.8359 108.484C17.4688 108.029 16.3294 107.345 15.418 106.434C14.5065 105.457 14.0508 104.122 14.0508 102.43C14.0508 101.323 14.3112 100.411 14.832 99.6953C15.418 98.9141 16.1016 98.2956 16.8828 97.8398C17.7292 97.319 18.6406 96.9609 19.6172 96.7656C20.6589 96.5052 21.668 96.375 22.6445 96.375C23.1654 96.375 23.6536 96.4076 24.1094 96.4727C24.6302 96.5378 25.151 96.6354 25.6719 96.7656C27.1693 96.9609 28.6667 97.1888 30.1641 97.4492C31.6615 97.6445 33.1589 97.8398 34.6562 98.0352C34.526 95.5612 34.4609 93.1198 34.4609 90.7109C34.4609 88.237 34.4609 85.8607 34.4609 83.582C34.4609 81.3685 34.4935 78.7969 34.5586 75.8672C34.6237 72.8724 34.7865 69.7148 35.0469 66.3945C35.3724 63.0742 35.7956 59.7539 36.3164 56.4336C36.9023 53.0482 37.6836 49.8581 38.6602 46.8633C39.6367 43.8685 40.8737 41.1992 42.3711 38.8555C43.8685 36.5117 45.6914 34.6888 47.8398 33.3867C48.9466 32.8008 50.1185 32.2474 51.3555 31.7266C52.6576 31.1406 53.8945 30.8477 55.0664 30.8477C57.0846 30.8477 58.0938 31.7591 58.0938 33.582ZM129.09 4.77344C124.337 8.41927 118.803 11.5768 112.488 14.2461C106.173 16.8503 99.5651 19.0312 92.6641 20.7891C85.763 22.5469 78.862 23.849 71.9609 24.6953C65.0599 25.5417 58.6471 25.9648 52.7227 25.9648C50.8997 25.9648 48.5885 25.8672 45.7891 25.6719C42.9896 25.4766 39.9622 25.1836 36.707 24.793C33.5169 24.4023 30.2292 23.8815 26.8438 23.2305C23.4583 22.5143 20.2357 21.7005 17.1758 20.7891C14.181 19.8125 11.5117 18.6732 9.16797 17.3711C6.82422 16.069 5.06641 14.6042 3.89453 12.9766C3.17839 11.8698 2.42969 10.6328 1.64844 9.26562C0.867188 7.83333 0.476562 6.40104 0.476562 4.96875C0.476562 3.14583 1.48568 2.23438 3.50391 2.23438C4.02474 2.23438 4.48047 2.26693 4.87109 2.33203C5.26172 2.39714 5.71745 2.49479 6.23828 2.625C8.71224 3.40625 11.056 4.22005 13.2695 5.06641C15.5482 5.91276 17.8919 6.69401 20.3008 7.41016C28.1784 9.23307 36.0885 10.6003 44.0312 11.5117C52.0391 12.3581 60.112 12.7812 68.25 12.7812C78.1458 12.7812 88.3021 12.0326 98.7188 10.5352C109.135 9.03776 118.999 6.53125 128.309 3.01562L129.09 4.77344ZM160.242 123.035C158.549 125.509 156.499 127.82 154.09 129.969C151.746 132.117 149.142 133.973 146.277 135.535C143.478 137.098 140.516 138.335 137.391 139.246C134.331 140.158 131.238 140.613 128.113 140.613C123.686 140.613 119.552 140.027 115.711 138.855C111.87 137.749 108.517 136.023 105.652 133.68C102.788 131.336 100.542 128.406 98.9141 124.891C97.2865 121.31 96.4727 117.143 96.4727 112.391C96.4727 107.703 97.319 103.341 99.0117 99.3047C100.77 95.2031 103.146 91.6549 106.141 88.6602C109.201 85.6003 112.781 83.1914 116.883 81.4336C120.984 79.6758 125.379 78.7969 130.066 78.7969C132.28 78.7969 134.331 79.1224 136.219 79.7734C138.172 80.3594 139.865 81.2708 141.297 82.5078C142.729 83.6797 143.836 85.1445 144.617 86.9023C145.464 88.6602 145.887 90.6784 145.887 92.957C145.887 95.6914 145.333 98.1003 144.227 100.184C143.12 102.267 141.655 104.09 139.832 105.652C138.009 107.215 135.926 108.517 133.582 109.559C131.303 110.6 128.895 111.447 126.355 112.098C123.882 112.749 121.408 113.237 118.934 113.562C116.525 113.823 114.311 113.953 112.293 113.953H109.949C110.796 119.878 113.139 124.402 116.98 127.527C120.822 130.652 126.128 132.215 132.898 132.215C137.716 132.215 142.404 131.368 146.961 129.676C151.583 127.983 155.75 125.639 159.461 122.645L160.242 123.035ZM109.656 111.023H112.098C114.441 111.023 116.85 110.665 119.324 109.949C121.798 109.168 124.012 108.061 125.965 106.629C127.983 105.132 129.643 103.309 130.945 101.16C132.247 99.0117 132.898 96.5703 132.898 93.8359C132.898 91.1667 132.312 88.9531 131.141 87.1953C130.034 85.4375 128.081 84.5586 125.281 84.5586C122.417 84.5586 119.975 85.4375 117.957 87.1953C116.004 88.888 114.409 91.0039 113.172 93.543C111.935 96.0169 111.023 98.6536 110.438 101.453C109.917 104.188 109.656 106.629 109.656 108.777V111.023ZM208.191 126.258C206.108 130.555 203.178 133.973 199.402 136.512C195.626 138.986 191.329 140.223 186.512 140.223C182.54 140.223 178.992 139.018 175.867 136.609C172.742 134.201 169.975 131.043 167.566 127.137C165.223 123.23 163.204 118.836 161.512 113.953C159.884 109.005 158.517 103.992 157.41 98.9141C156.368 93.8359 155.587 88.9531 155.066 84.2656C154.611 79.513 154.383 75.3789 154.383 71.8633C154.383 67.5664 154.611 62.8464 155.066 57.7031C155.522 52.5599 156.271 47.3841 157.312 42.1758C158.354 36.9023 159.689 31.7917 161.316 26.8438C163.009 21.8958 165.027 17.5339 167.371 13.7578C169.78 9.91667 172.547 6.85677 175.672 4.57812C178.797 2.23438 182.378 1.0625 186.414 1.0625C189.865 1.0625 192.664 2.07161 194.812 4.08984C196.961 6.10807 198.654 8.61458 199.891 11.6094C201.128 14.5391 201.941 17.6641 202.332 20.9844C202.788 24.3047 203.016 27.2669 203.016 29.8711C203.016 36.9023 202.169 43.8359 200.477 50.6719C198.849 57.4427 196.57 63.8555 193.641 69.9102C190.776 75.8997 187.391 81.3685 183.484 86.3164C179.578 91.1992 175.379 95.3008 170.887 98.6211C171.798 102.983 172.872 107.247 174.109 111.414C175.411 115.516 176.974 119.194 178.797 122.449C180.62 125.639 182.703 128.243 185.047 130.262C187.456 132.215 190.19 133.191 193.25 133.191C196.31 133.191 198.947 132.573 201.16 131.336C203.374 130.099 205.424 128.276 207.312 125.867L208.191 126.258ZM167.957 66.0039C167.892 67.4362 167.859 69.194 167.859 71.2773C167.924 73.3607 168.022 75.6719 168.152 78.2109C168.348 80.6849 168.608 83.3542 168.934 86.2188C169.259 89.0833 169.682 92.013 170.203 95.0078C174.565 91.1016 178.276 86.7721 181.336 82.0195C184.396 77.2669 186.902 72.1562 188.855 66.6875C190.809 61.1536 192.208 55.3594 193.055 49.3047C193.966 43.1849 194.422 36.8372 194.422 30.2617C194.422 29.4154 194.389 28.3086 194.324 26.9414C194.324 25.5742 194.227 24.1094 194.031 22.5469C193.836 20.9844 193.543 19.4219 193.152 17.8594C192.827 16.2969 192.339 14.8971 191.688 13.6602C191.102 12.3581 190.32 11.3164 189.344 10.5352C188.432 9.6888 187.326 9.26562 186.023 9.26562C183.549 9.26562 181.368 10.5026 179.48 12.9766C177.658 15.3854 176.062 18.4779 174.695 22.2539C173.393 26.0299 172.286 30.1966 171.375 34.7539C170.529 39.3112 169.845 43.7057 169.324 47.9375C168.803 52.1042 168.445 55.8477 168.25 59.168C168.055 62.4883 167.957 64.7669 167.957 66.0039ZM229.773 58.1914C229.773 59.4935 229.48 60.7956 228.895 62.0977C228.309 63.3997 227.527 64.5716 226.551 65.6133C225.639 66.5898 224.565 67.4036 223.328 68.0547C222.091 68.7057 220.822 69.0312 219.52 69.0312C217.827 69.0312 216.46 68.4779 215.418 67.3711C214.441 66.2643 213.953 64.8646 213.953 63.1719C213.953 61.8698 214.246 60.6003 214.832 59.3633C215.418 58.0612 216.167 56.9219 217.078 55.9453C218.055 54.9688 219.129 54.1875 220.301 53.6016C221.538 52.9505 222.807 52.625 224.109 52.625C225.802 52.625 227.169 53.1458 228.211 54.1875C229.253 55.2292 229.773 56.5638 229.773 58.1914ZM257.117 123.035C255.62 125.509 253.829 127.788 251.746 129.871C249.728 131.889 247.482 133.68 245.008 135.242C242.599 136.74 239.995 137.911 237.195 138.758C234.461 139.604 231.629 140.027 228.699 140.027C225.053 140.027 221.798 139.409 218.934 138.172C216.134 136.935 213.758 135.242 211.805 133.094C209.917 130.88 208.452 128.309 207.41 125.379C206.434 122.384 205.945 119.129 205.945 115.613C205.945 111.837 206.499 108.257 207.605 104.871C208.712 101.486 210.242 98.3281 212.195 95.3984C214.148 92.4036 216.427 89.6693 219.031 87.1953C221.701 84.7214 224.533 82.5078 227.527 80.5547L228.699 81.4336C225.509 85.2096 222.905 89.4414 220.887 94.1289C218.934 98.8164 217.957 103.699 217.957 108.777C217.957 111.707 218.283 114.539 218.934 117.273C219.65 119.943 220.724 122.319 222.156 124.402C223.654 126.486 225.542 128.146 227.82 129.383C230.099 130.62 232.866 131.238 236.121 131.238C239.962 131.238 243.608 130.424 247.059 128.797C250.574 127.169 253.732 125.118 256.531 122.645L257.117 123.035ZM308.289 87C308.289 88.7578 307.443 90.5807 305.75 92.4688C304.122 94.3568 302.104 96.2122 299.695 98.0352C297.352 99.8581 294.845 101.583 292.176 103.211C289.572 104.773 287.293 106.108 285.34 107.215C286.772 109.949 288.204 112.716 289.637 115.516C291.069 118.315 292.729 120.854 294.617 123.133C296.505 125.346 298.686 127.169 301.16 128.602C303.634 130.034 306.629 130.75 310.145 130.75C313.465 130.75 316.622 130.132 319.617 128.895C322.612 127.658 325.346 125.9 327.82 123.621L328.406 124.012C327.234 126.355 325.737 128.536 323.914 130.555C322.091 132.573 320.04 134.331 317.762 135.828C315.548 137.326 313.139 138.497 310.535 139.344C307.931 140.19 305.262 140.613 302.527 140.613C298.751 140.613 295.431 139.93 292.566 138.562C289.767 137.195 287.26 135.372 285.047 133.094C282.898 130.75 280.945 128.048 279.188 124.988C277.495 121.928 275.867 118.706 274.305 115.32C272.417 117.273 270.757 119.389 269.324 121.668C267.892 123.947 266.688 126.258 265.711 128.602C264.734 130.945 263.986 133.289 263.465 135.633C262.944 137.977 262.684 140.158 262.684 142.176C262.684 144.715 262.879 146.928 263.27 148.816C263.725 150.77 264.214 152.365 264.734 153.602C265.32 154.904 265.874 155.88 266.395 156.531C266.915 157.182 267.273 157.573 267.469 157.703L266.785 158.582C264.767 158.322 262.814 157.605 260.926 156.434C259.038 155.327 257.345 153.927 255.848 152.234C254.35 150.542 253.146 148.654 252.234 146.57C251.323 144.552 250.867 142.501 250.867 140.418C250.867 137.749 251.486 135.112 252.723 132.508C253.96 129.839 255.587 127.267 257.605 124.793C259.689 122.319 262.033 119.975 264.637 117.762C267.241 115.548 269.878 113.497 272.547 111.609C271.115 108.549 269.747 105.62 268.445 102.82C267.143 99.9557 265.841 97.4492 264.539 95.3008C263.302 93.1523 262.065 91.4271 260.828 90.125C259.656 88.8229 258.484 88.1719 257.312 88.1719C256.922 88.1719 256.401 88.3021 255.75 88.5625C255.099 88.7578 254.448 89.0182 253.797 89.3438C253.211 89.6693 252.625 89.9948 252.039 90.3203C251.518 90.6458 251.128 90.8737 250.867 91.0039L250.281 90.0273C251.062 89.0508 252.104 88.0091 253.406 86.9023C254.708 85.7956 256.108 84.819 257.605 83.9727C259.103 83.0612 260.633 82.3125 262.195 81.7266C263.758 81.1406 265.223 80.8477 266.59 80.8477C268.543 80.8477 270.366 81.694 272.059 83.3867C273.751 85.0143 275.314 87.0651 276.746 89.5391C278.178 91.9479 279.48 94.5195 280.652 97.2539C281.889 99.9232 282.996 102.332 283.973 104.48C285.535 103.504 287.065 102.397 288.562 101.16C290.06 99.9232 291.395 98.5885 292.566 97.1562C293.738 95.6589 294.682 94.0638 295.398 92.3711C296.115 90.6133 296.473 88.7578 296.473 86.8047C296.473 86.0234 296.375 85.2422 296.18 84.4609C295.984 83.6146 295.887 82.8008 295.887 82.0195C295.887 81.1081 296.245 80.5221 296.961 80.2617C297.677 79.9362 298.393 79.7734 299.109 79.7734C300.086 79.7734 301.128 79.9362 302.234 80.2617C303.341 80.5872 304.318 81.0755 305.164 81.7266C306.076 82.3125 306.824 83.0612 307.41 83.9727C307.996 84.819 308.289 85.8281 308.289 87ZM478.699 88.5625C478.699 93.8359 478.211 99.5977 477.234 105.848C476.323 112.033 474.891 118.217 472.938 124.402C470.984 130.587 468.51 136.544 465.516 142.273C462.521 148.068 458.94 153.146 454.773 157.508C450.672 161.935 445.952 165.483 440.613 168.152C435.34 170.822 429.415 172.156 422.84 172.156C416.329 172.156 410.535 170.919 405.457 168.445C400.444 166.036 396.049 162.781 392.273 158.68C388.497 154.643 385.307 149.956 382.703 144.617C380.099 139.279 377.983 133.712 376.355 127.918C374.793 122.124 373.654 116.297 372.938 110.438C372.221 104.578 371.863 99.0443 371.863 93.8359C371.863 88.3021 372.124 82.6055 372.645 76.7461C373.165 70.8216 374.044 64.9622 375.281 59.168C376.583 53.3086 378.276 47.612 380.359 42.0781C382.443 36.4792 385.014 31.2708 388.074 26.4531C391.199 21.5703 394.845 17.1758 399.012 13.2695C403.243 9.29818 408.126 6.01042 413.66 3.40625L414.441 4.77344C410.535 7.96354 407.085 11.6419 404.09 15.8086C401.16 19.9753 398.589 24.4674 396.375 29.2852C394.227 34.0378 392.404 39.0508 390.906 44.3242C389.409 49.5326 388.204 54.806 387.293 60.1445C386.447 65.418 385.828 70.6914 385.438 75.9648C385.047 81.1732 384.852 86.1862 384.852 91.0039C384.852 95.4961 385.145 100.444 385.73 105.848C386.382 111.251 387.423 116.72 388.855 122.254C390.288 127.788 392.176 133.159 394.52 138.367C396.863 143.576 399.728 148.198 403.113 152.234C406.499 156.271 410.47 159.493 415.027 161.902C419.585 164.376 424.793 165.613 430.652 165.613C435.34 165.613 439.507 164.441 443.152 162.098C446.863 159.819 450.086 156.792 452.82 153.016C455.555 149.24 457.866 144.943 459.754 140.125C461.642 135.307 463.172 130.424 464.344 125.477C465.516 120.529 466.362 115.743 466.883 111.121C467.404 106.434 467.664 102.332 467.664 98.8164C467.664 96.082 467.501 92.8594 467.176 89.1484C466.915 85.3724 466.427 81.3685 465.711 77.1367C465.06 72.9049 464.214 68.543 463.172 64.0508C462.13 59.5586 460.828 55.1966 459.266 50.9648C457.703 46.668 455.88 42.6315 453.797 38.8555C451.779 35.0794 449.435 31.7591 446.766 28.8945C444.096 26.0299 441.134 23.7839 437.879 22.1562C434.624 20.4635 431.01 19.6172 427.039 19.6172C423.523 19.6172 420.529 20.4635 418.055 22.1562C415.581 23.7839 413.562 25.8997 412 28.5039C410.503 31.1081 409.396 34.0052 408.68 37.1953C408.029 40.3203 407.703 43.3802 407.703 46.375C407.703 46.7656 407.703 47.2214 407.703 47.7422C407.703 48.1979 407.768 48.6211 407.898 49.0117L406.434 49.207C406.238 47.7747 406.043 46.3424 405.848 44.9102C405.717 43.4128 405.652 41.9154 405.652 40.418C405.652 36.3815 406.173 32.4753 407.215 28.6992C408.322 24.8581 409.949 21.4727 412.098 18.543C414.246 15.6133 416.948 13.2695 420.203 11.5117C423.523 9.6888 427.397 8.77734 431.824 8.77734C438.009 8.77734 443.445 10.112 448.133 12.7812C452.885 15.4505 456.987 18.9661 460.438 23.3281C463.953 27.6901 466.85 32.7031 469.129 38.3672C471.473 43.9661 473.361 49.7279 474.793 55.6523C476.225 61.5117 477.234 67.306 477.82 73.0352C478.406 78.7643 478.699 83.9401 478.699 88.5625ZM549.402 166.59C549.402 170.301 549.044 174.012 548.328 177.723C547.612 181.434 546.538 185.014 545.105 188.465C543.738 191.98 542.013 195.236 539.93 198.23C537.846 201.29 535.47 203.927 532.801 206.141C530.132 208.354 527.137 210.112 523.816 211.414C520.561 212.716 517.013 213.367 513.172 213.367C509.591 213.367 506.206 212.651 503.016 211.219C499.826 209.786 497.026 207.866 494.617 205.457C492.273 203.048 490.418 200.216 489.051 196.961C487.684 193.771 487 190.385 487 186.805C487 182.898 487.781 179.155 489.344 175.574C490.971 171.993 493.087 168.706 495.691 165.711C498.296 162.716 501.225 160.079 504.48 157.801C507.801 155.522 511.186 153.732 514.637 152.43L515.223 153.602C508.908 157.052 504.025 161.707 500.574 167.566C497.124 173.426 495.398 179.969 495.398 187.195C495.398 190.125 495.789 192.924 496.57 195.594C497.417 198.328 498.654 200.737 500.281 202.82C501.909 204.904 503.927 206.564 506.336 207.801C508.81 209.103 511.642 209.754 514.832 209.754C519.259 209.754 522.938 208.549 525.867 206.141C528.797 203.732 531.141 200.704 532.898 197.059C534.656 193.478 535.893 189.572 536.609 185.34C537.391 181.108 537.781 177.137 537.781 173.426C537.781 169.454 537.456 165.548 536.805 161.707C536.219 157.866 535.47 154.025 534.559 150.184C533.712 146.342 532.833 142.501 531.922 138.66C531.01 134.819 530.262 130.945 529.676 127.039C528.309 128.667 526.844 130.229 525.281 131.727C523.719 133.159 522.026 134.428 520.203 135.535C518.445 136.577 516.557 137.391 514.539 137.977C512.521 138.628 510.405 138.953 508.191 138.953C504.871 138.953 501.941 138.335 499.402 137.098C496.928 135.926 494.845 134.298 493.152 132.215C491.46 130.132 490.158 127.723 489.246 124.988C488.4 122.254 487.977 119.324 487.977 116.199C487.977 112.684 488.465 109.233 489.441 105.848C490.418 102.462 491.785 99.2721 493.543 96.2773C495.301 93.2826 497.384 90.4831 499.793 87.8789C502.202 85.2747 504.806 82.9961 507.605 81.043L508.777 81.6289C505.978 85.6654 503.764 90.0273 502.137 94.7148C500.574 99.3372 499.793 104.09 499.793 108.973C499.793 111.056 500.021 113.302 500.477 115.711C500.932 118.12 501.648 120.333 502.625 122.352C503.667 124.37 505.034 126.062 506.727 127.43C508.484 128.732 510.633 129.383 513.172 129.383C516.232 129.383 519.096 128.732 521.766 127.43C524.435 126.062 526.876 124.337 529.09 122.254C528.895 119.845 528.797 117.436 528.797 115.027C528.797 111.707 529.025 108.257 529.48 104.676C529.936 101.095 530.75 97.6771 531.922 94.4219C533.159 91.1016 534.819 88.1068 536.902 85.4375C538.986 82.7031 541.688 80.4896 545.008 78.7969L545.789 79.1875C544.227 80.8151 542.924 82.638 541.883 84.6562C540.841 86.6094 539.995 88.6602 539.344 90.8086C538.758 92.957 538.335 95.1706 538.074 97.4492C537.879 99.6628 537.781 101.844 537.781 103.992C537.781 109.982 538.367 115.548 539.539 120.691C540.776 125.835 542.111 130.88 543.543 135.828C545.04 140.776 546.375 145.724 547.547 150.672C548.784 155.685 549.402 160.991 549.402 166.59ZM616.883 123.035C615.19 125.509 613.139 127.82 610.73 129.969C608.387 132.117 605.783 133.973 602.918 135.535C600.118 137.098 597.156 138.335 594.031 139.246C590.971 140.158 587.879 140.613 584.754 140.613C580.327 140.613 576.193 140.027 572.352 138.855C568.51 137.749 565.158 136.023 562.293 133.68C559.428 131.336 557.182 128.406 555.555 124.891C553.927 121.31 553.113 117.143 553.113 112.391C553.113 107.703 553.96 103.341 555.652 99.3047C557.41 95.2031 559.786 91.6549 562.781 88.6602C565.841 85.6003 569.422 83.1914 573.523 81.4336C577.625 79.6758 582.02 78.7969 586.707 78.7969C588.921 78.7969 590.971 79.1224 592.859 79.7734C594.812 80.3594 596.505 81.2708 597.938 82.5078C599.37 83.6797 600.477 85.1445 601.258 86.9023C602.104 88.6602 602.527 90.6784 602.527 92.957C602.527 95.6914 601.974 98.1003 600.867 100.184C599.76 102.267 598.296 104.09 596.473 105.652C594.65 107.215 592.566 108.517 590.223 109.559C587.944 110.6 585.535 111.447 582.996 112.098C580.522 112.749 578.048 113.237 575.574 113.562C573.165 113.823 570.952 113.953 568.934 113.953H566.59C567.436 119.878 569.78 124.402 573.621 127.527C577.462 130.652 582.768 132.215 589.539 132.215C594.357 132.215 599.044 131.368 603.602 129.676C608.224 127.983 612.391 125.639 616.102 122.645L616.883 123.035ZM566.297 111.023H568.738C571.082 111.023 573.491 110.665 575.965 109.949C578.439 109.168 580.652 108.061 582.605 106.629C584.624 105.132 586.284 103.309 587.586 101.16C588.888 99.0117 589.539 96.5703 589.539 93.8359C589.539 91.1667 588.953 88.9531 587.781 87.1953C586.674 85.4375 584.721 84.5586 581.922 84.5586C579.057 84.5586 576.616 85.4375 574.598 87.1953C572.645 88.888 571.049 91.0039 569.812 93.543C568.576 96.0169 567.664 98.6536 567.078 101.453C566.557 104.188 566.297 106.629 566.297 108.777V111.023ZM664.832 126.258C662.749 130.555 659.819 133.973 656.043 136.512C652.267 138.986 647.97 140.223 643.152 140.223C639.181 140.223 635.633 139.018 632.508 136.609C629.383 134.201 626.616 131.043 624.207 127.137C621.863 123.23 619.845 118.836 618.152 113.953C616.525 109.005 615.158 103.992 614.051 98.9141C613.009 93.8359 612.228 88.9531 611.707 84.2656C611.251 79.513 611.023 75.3789 611.023 71.8633C611.023 67.5664 611.251 62.8464 611.707 57.7031C612.163 52.5599 612.911 47.3841 613.953 42.1758C614.995 36.9023 616.329 31.7917 617.957 26.8438C619.65 21.8958 621.668 17.5339 624.012 13.7578C626.421 9.91667 629.188 6.85677 632.312 4.57812C635.438 2.23438 639.018 1.0625 643.055 1.0625C646.505 1.0625 649.305 2.07161 651.453 4.08984C653.602 6.10807 655.294 8.61458 656.531 11.6094C657.768 14.5391 658.582 17.6641 658.973 20.9844C659.428 24.3047 659.656 27.2669 659.656 29.8711C659.656 36.9023 658.81 43.8359 657.117 50.6719C655.49 57.4427 653.211 63.8555 650.281 69.9102C647.417 75.8997 644.031 81.3685 640.125 86.3164C636.219 91.1992 632.02 95.3008 627.527 98.6211C628.439 102.983 629.513 107.247 630.75 111.414C632.052 115.516 633.615 119.194 635.438 122.449C637.26 125.639 639.344 128.243 641.688 130.262C644.096 132.215 646.831 133.191 649.891 133.191C652.951 133.191 655.587 132.573 657.801 131.336C660.014 130.099 662.065 128.276 663.953 125.867L664.832 126.258ZM624.598 66.0039C624.533 67.4362 624.5 69.194 624.5 71.2773C624.565 73.3607 624.663 75.6719 624.793 78.2109C624.988 80.6849 625.249 83.3542 625.574 86.2188C625.9 89.0833 626.323 92.013 626.844 95.0078C631.206 91.1016 634.917 86.7721 637.977 82.0195C641.036 77.2669 643.543 72.1562 645.496 66.6875C647.449 61.1536 648.849 55.3594 649.695 49.3047C650.607 43.1849 651.062 36.8372 651.062 30.2617C651.062 29.4154 651.03 28.3086 650.965 26.9414C650.965 25.5742 650.867 24.1094 650.672 22.5469C650.477 20.9844 650.184 19.4219 649.793 17.8594C649.467 16.2969 648.979 14.8971 648.328 13.6602C647.742 12.3581 646.961 11.3164 645.984 10.5352C645.073 9.6888 643.966 9.26562 642.664 9.26562C640.19 9.26562 638.009 10.5026 636.121 12.9766C634.298 15.3854 632.703 18.4779 631.336 22.2539C630.034 26.0299 628.927 30.1966 628.016 34.7539C627.169 39.3112 626.486 43.7057 625.965 47.9375C625.444 52.1042 625.086 55.8477 624.891 59.168C624.695 62.4883 624.598 64.7669 624.598 66.0039ZM725.867 123.035C724.174 125.509 722.124 127.82 719.715 129.969C717.371 132.117 714.767 133.973 711.902 135.535C709.103 137.098 706.141 138.335 703.016 139.246C699.956 140.158 696.863 140.613 693.738 140.613C689.311 140.613 685.177 140.027 681.336 138.855C677.495 137.749 674.142 136.023 671.277 133.68C668.413 131.336 666.167 128.406 664.539 124.891C662.911 121.31 662.098 117.143 662.098 112.391C662.098 107.703 662.944 103.341 664.637 99.3047C666.395 95.2031 668.771 91.6549 671.766 88.6602C674.826 85.6003 678.406 83.1914 682.508 81.4336C686.609 79.6758 691.004 78.7969 695.691 78.7969C697.905 78.7969 699.956 79.1224 701.844 79.7734C703.797 80.3594 705.49 81.2708 706.922 82.5078C708.354 83.6797 709.461 85.1445 710.242 86.9023C711.089 88.6602 711.512 90.6784 711.512 92.957C711.512 95.6914 710.958 98.1003 709.852 100.184C708.745 102.267 707.28 104.09 705.457 105.652C703.634 107.215 701.551 108.517 699.207 109.559C696.928 110.6 694.52 111.447 691.98 112.098C689.507 112.749 687.033 113.237 684.559 113.562C682.15 113.823 679.936 113.953 677.918 113.953H675.574C676.421 119.878 678.764 124.402 682.605 127.527C686.447 130.652 691.753 132.215 698.523 132.215C703.341 132.215 708.029 131.368 712.586 129.676C717.208 127.983 721.375 125.639 725.086 122.645L725.867 123.035ZM675.281 111.023H677.723C680.066 111.023 682.475 110.665 684.949 109.949C687.423 109.168 689.637 108.061 691.59 106.629C693.608 105.132 695.268 103.309 696.57 101.16C697.872 99.0117 698.523 96.5703 698.523 93.8359C698.523 91.1667 697.938 88.9531 696.766 87.1953C695.659 85.4375 693.706 84.5586 690.906 84.5586C688.042 84.5586 685.6 85.4375 683.582 87.1953C681.629 88.888 680.034 91.0039 678.797 93.543C677.56 96.0169 676.648 98.6536 676.062 101.453C675.542 104.188 675.281 106.629 675.281 108.777V111.023ZM800.867 122.059C799.565 124.598 798.068 127.039 796.375 129.383C794.682 131.727 792.729 133.81 790.516 135.633C788.302 137.456 785.828 138.888 783.094 139.93C780.359 141.036 777.267 141.59 773.816 141.59C767.566 141.59 762.423 140.158 758.387 137.293C754.415 134.428 751.062 130.424 748.328 125.281C747.547 125.607 746.766 125.9 745.984 126.16C745.268 126.355 744.552 126.583 743.836 126.844C743.706 127.951 743.576 128.96 743.445 129.871C743.315 130.783 743.185 131.629 743.055 132.41C742.924 133.257 742.762 134.168 742.566 135.145C742.371 136.121 742.046 137.033 741.59 137.879C741.134 138.725 740.516 139.409 739.734 139.93C738.953 140.516 737.879 140.809 736.512 140.809C734.559 140.809 733.191 140.19 732.41 138.953C731.629 137.781 731.01 136.479 730.555 135.047C729.578 131.922 728.667 128.146 727.82 123.719C727.039 119.292 726.355 114.734 725.77 110.047C725.184 105.294 724.728 100.607 724.402 95.9844C724.077 91.362 723.914 87.2604 723.914 83.6797C723.914 79.3828 724.044 74.8581 724.305 70.1055C724.565 65.2878 725.021 60.4375 725.672 55.5547C726.323 50.6719 727.202 45.8542 728.309 41.1016C729.48 36.2839 730.945 31.694 732.703 27.332C734.461 22.9701 736.544 18.9336 738.953 15.2227C741.427 11.4466 744.324 8.19141 747.645 5.45703C749.142 4.22005 750.835 3.14583 752.723 2.23438C754.676 1.32292 756.596 0.867188 758.484 0.867188C759.266 0.867188 760.145 1.0625 761.121 1.45312C762.163 1.77865 762.684 2.42969 762.684 3.40625C762.684 3.92708 762.423 4.54557 761.902 5.26172C752.592 18.0872 745.854 31.7266 741.688 46.1797C737.521 60.5677 735.438 75.8346 735.438 91.9805C735.438 98.6211 735.73 105.034 736.316 111.219C736.967 117.339 737.814 123.751 738.855 130.457C739.116 127.072 739.474 123.458 739.93 119.617C740.451 115.711 741.134 111.87 741.98 108.094C742.892 104.318 744.031 100.704 745.398 97.2539C746.766 93.7383 748.458 90.6458 750.477 87.9766C752.495 85.3073 754.839 83.1914 757.508 81.6289C760.242 80.0013 763.432 79.1875 767.078 79.1875C770.919 79.1875 774.109 80.3268 776.648 82.6055C779.188 84.819 780.457 87.8789 780.457 91.7852C780.457 93.9987 780.099 96.1797 779.383 98.3281C778.667 100.477 777.69 102.527 776.453 104.48C775.281 106.368 773.914 108.159 772.352 109.852C770.854 111.544 769.292 113.009 767.664 114.246C765.32 116.069 762.749 117.827 759.949 119.52C760.991 121.538 762.163 123.458 763.465 125.281C764.767 127.039 766.199 128.602 767.762 129.969C769.324 131.271 771.049 132.312 772.938 133.094C774.891 133.875 777.039 134.266 779.383 134.266C781.466 134.266 783.484 133.94 785.438 133.289C787.456 132.573 789.344 131.661 791.102 130.555C792.859 129.383 794.487 128.048 795.984 126.551C797.547 124.988 798.947 123.361 800.184 121.668L800.867 122.059ZM762.293 91.4922C759.038 91.4922 756.368 92.5339 754.285 94.6172C752.202 96.6354 750.477 99.207 749.109 102.332C747.807 105.392 746.798 108.777 746.082 112.488C745.366 116.199 744.78 119.715 744.324 123.035C747.449 121.798 750.411 120.301 753.211 118.543C756.076 116.72 758.549 114.734 760.633 112.586C762.716 110.438 764.376 108.159 765.613 105.75C766.85 103.276 767.469 100.704 767.469 98.0352C767.469 96.3424 767.013 94.8451 766.102 93.543C765.255 92.1758 763.986 91.4922 762.293 91.4922ZM858.289 123.035C856.596 125.509 854.546 127.82 852.137 129.969C849.793 132.117 847.189 133.973 844.324 135.535C841.525 137.098 838.562 138.335 835.438 139.246C832.378 140.158 829.285 140.613 826.16 140.613C821.733 140.613 817.599 140.027 813.758 138.855C809.917 137.749 806.564 136.023 803.699 133.68C800.835 131.336 798.589 128.406 796.961 124.891C795.333 121.31 794.52 117.143 794.52 112.391C794.52 107.703 795.366 103.341 797.059 99.3047C798.816 95.2031 801.193 91.6549 804.188 88.6602C807.247 85.6003 810.828 83.1914 814.93 81.4336C819.031 79.6758 823.426 78.7969 828.113 78.7969C830.327 78.7969 832.378 79.1224 834.266 79.7734C836.219 80.3594 837.911 81.2708 839.344 82.5078C840.776 83.6797 841.883 85.1445 842.664 86.9023C843.51 88.6602 843.934 90.6784 843.934 92.957C843.934 95.6914 843.38 98.1003 842.273 100.184C841.167 102.267 839.702 104.09 837.879 105.652C836.056 107.215 833.973 108.517 831.629 109.559C829.35 110.6 826.941 111.447 824.402 112.098C821.928 112.749 819.454 113.237 816.98 113.562C814.572 113.823 812.358 113.953 810.34 113.953H807.996C808.842 119.878 811.186 124.402 815.027 127.527C818.868 130.652 824.174 132.215 830.945 132.215C835.763 132.215 840.451 131.368 845.008 129.676C849.63 127.983 853.797 125.639 857.508 122.645L858.289 123.035ZM807.703 111.023H810.145C812.488 111.023 814.897 110.665 817.371 109.949C819.845 109.168 822.059 108.061 824.012 106.629C826.03 105.132 827.69 103.309 828.992 101.16C830.294 99.0117 830.945 96.5703 830.945 93.8359C830.945 91.1667 830.359 88.9531 829.188 87.1953C828.081 85.4375 826.128 84.5586 823.328 84.5586C820.464 84.5586 818.022 85.4375 816.004 87.1953C814.051 88.888 812.456 91.0039 811.219 93.543C809.982 96.0169 809.07 98.6536 808.484 101.453C807.964 104.188 807.703 106.629 807.703 108.777V111.023Z" fill="#FC5185"/>
</svg>
